<svg id="Layer_1" data-name="Layer 1" xmlns="http://www.w3.org/2000/svg" viewBox="0 0 1918.65 1678.82"><defs><style>.cls-1{fill:#fff;}</style></defs><path class="cls-1" d="M69.87,416.8H1851.48A68.52,68.52,0,0,0,1920,348.28V177a68.52,68.52,0,0,0-68.52-68.52H69.87A68.52,68.52,0,0,0,1.35,177V348.28A68.51,68.51,0,0,0,69.87,416.8Zm0,685.24H1851.48a68.53,68.53,0,0,0,68.52-68.53V862.21a68.53,68.53,0,0,0-68.52-68.53H69.87A68.52,68.52,0,0,0,1.35,862.21v171.3A68.52,68.52,0,0,0,69.87,1102Zm0,685.23H1851.48a68.52,68.52,0,0,0,68.52-68.52V1547.44a68.52,68.52,0,0,0-68.52-68.52H69.87a68.51,68.51,0,0,0-68.52,68.52v171.31A68.52,68.52,0,0,0,69.87,1787.27Z" transform="translate(-1.35 -108.45)"/></svg>